<?xml version="1.0" encoding="UTF-8" standalone="no"?>
<svg
   id="logo"
   width="97.783mm"
   height="28.303mm"
   viewBox="0 0 277.179 80.23"
   version="1.1"
   sodipodi:docname="FablabLogoBW_Text.svg"
   inkscape:export-filename="FablabLogoBW_Text.png"
   inkscape:export-xdpi="300"
   inkscape:export-ydpi="300"
   inkscape:version="1.3.2 (091e20e, 2023-11-25, custom)"
   xmlns:inkscape="http://www.inkscape.org/namespaces/inkscape"
   xmlns:sodipodi="http://sodipodi.sourceforge.net/DTD/sodipodi-0.dtd"
   xmlns="http://www.w3.org/2000/svg"
   xmlns:svg="http://www.w3.org/2000/svg">
  <defs
     id="defs6" />
  <sodipodi:namedview
     id="namedview6"
     pagecolor="#505050"
     bordercolor="#eeeeee"
     borderopacity="1"
     inkscape:showpageshadow="0"
     inkscape:pageopacity="0"
     inkscape:pagecheckerboard="0"
     inkscape:deskcolor="#505050"
     inkscape:document-units="mm"
     inkscape:zoom="3.3227488"
     inkscape:cx="184.78677"
     inkscape:cy="53.570105"
     inkscape:window-width="1920"
     inkscape:window-height="1018"
     inkscape:window-x="-6"
     inkscape:window-y="-6"
     inkscape:window-maximized="1"
     inkscape:current-layer="logo" />
  <g
     id="g1">
    <path
       id="path5"
       d="m38.129,66.489v-8.494c.305-.117.602-.256.888-.424,4.05-2.388,4.476-9.171.95-15.15-3.525-5.979-9.666-8.89-13.716-6.502-4.05,2.388-4.476,9.171-.951,15.15.569.964,1.206,1.848,1.891,2.643v6.311l-8.729-4.995v-31.287l-3.06-2.02c-2.787,5.078-4.372,10.91-4.372,17.111,0,19.269,15.289,34.956,34.404,35.589l.003-3.671-7.309-4.259Z"
       fill="#676767"
       stroke-width="0" />
    <path
       id="path7"
       d="m27.991,16.774l5.335,3.162c-.105.877-.109,1.842-.105,2.174.049,4.701,6.416,8.275,13.356,8.203,6.941-.072,11.884-4.277,11.849-8.413-.04-4.701-4.56-8.382-11.498-8.588-2.349-.07-4.613.399-5.644.596l-3.891-2.489,9.255-5.28,27.282,15.858,3.129-1.717c-3.01-4.949-7.273-9.232-12.647-12.327C47.711-1.663,26.488,3.76,16.402,20.009l3.103,1.96,8.485-5.195h0Z"
       fill="#545454"
       stroke-width="0" />
    <path
       id="path9"
       d="m74.849,34.01l-5.802,3.032c-.21-.035-1.498-1.241-1.788-1.402-4.107-2.288-10.154.737-13.532,6.801-3.378,6.063-3.09,12.996,1.017,15.284,4.107,2.288,10.223-.457,13.601-6.52.545-.978,1.272-3.249,1.613-4.242l4.942-2.857-.029,10.849-27.209,15.89.013,3.58c5.791-.161,11.624-1.74,16.975-4.873,16.627-9.736,22.439-30.857,13.327-47.671l-3.13,1.718v10.411h0Z"
       fill="#4a4a4a"
       stroke-width="0" />
  </g>
  <text
     transform="translate(122.41 33.75)"
     font-family="Tahoma, Tahoma"
     font-size="28.498"
     id="text6"><tspan
       x="0"
       y="0"
       letter-spacing=".029em"
       id="tspan1">F</tspan><tspan
       x="15.691"
       y="0"
       letter-spacing=".075em"
       id="tspan2">AB</tspan><tspan
       x="53.85"
       y="0"
       letter-spacing=".055em"
       id="tspan3">L</tspan><tspan
       x="69.596"
       y="0"
       letter-spacing=".075em"
       id="tspan4">AB</tspan><tspan
       letter-spacing=".075em"
       id="tspan6"><tspan
         x="-30.323"
         y="31.348"
         id="tspan5">WORKSHOP</tspan></tspan></text>
</svg>
